<mxfile host="app.diagrams.net" modified="2023-01-21T14:54:49.472Z" agent="5.0 (Windows NT 10.0; Win64; x64) AppleWebKit/537.36 (KHTML, like Gecko) Chrome/109.0.0.0 Safari/537.36" etag="mf-DLBMUvwWhbdFqUOHq" version="20.8.7" type="github">
  <diagram name="第 1 页" id="gbsZ-AJLW715ukrptVrT">
    <mxGraphModel dx="1050" dy="549" grid="1" gridSize="10" guides="1" tooltips="1" connect="1" arrows="1" fold="1" page="1" pageScale="1" pageWidth="827" pageHeight="1169" math="0" shadow="0">
      <root>
        <mxCell id="0" />
        <mxCell id="1" parent="0" />
        <mxCell id="vXawp6WQgn3ILwCrr8FQ-1" value="&lt;font style=&quot;font-size: 24px;&quot;&gt;key-value存储&lt;/font&gt;" style="ellipse;whiteSpace=wrap;html=1;aspect=fixed;fillColor=#ffe6cc;strokeColor=#d79b00;dashed=1;" vertex="1" parent="1">
          <mxGeometry x="180" y="220" width="160" height="160" as="geometry" />
        </mxCell>
        <mxCell id="vXawp6WQgn3ILwCrr8FQ-3" value="&lt;font style=&quot;font-size: 24px;&quot;&gt;本地文件系统&lt;/font&gt;" style="ellipse;whiteSpace=wrap;html=1;aspect=fixed;fillColor=#ffe6cc;strokeColor=#d79b00;dashed=1;" vertex="1" parent="1">
          <mxGeometry x="470" y="220" width="160" height="160" as="geometry" />
        </mxCell>
      </root>
    </mxGraphModel>
  </diagram>
</mxfile>
